<svg width="577" height="371" viewBox="0 0 577 371" fill="none" xmlns="http://www.w3.org/2000/svg">
<path fill-rule="evenodd" clip-rule="evenodd" d="M180.233 236.194H12.0155C6.48553 236.194 2.00259 239.823 2.00259 244.301V344.836C2.00259 349.313 6.48553 352.943 12.0155 352.943H180.233C185.763 352.943 190.246 349.313 190.246 344.836V244.301C190.246 239.823 185.763 236.194 180.233 236.194ZM12.0155 234.572C5.37954 234.572 0 238.928 0 244.301V344.836C0 350.209 5.37954 354.565 12.0155 354.565H180.233C186.869 354.565 192.248 350.209 192.248 344.836V244.301C192.248 238.928 186.869 234.572 180.233 234.572H12.0155Z" fill="url(#paint0_linear_1_464)"/>
<path d="M15.5436 253.975C15.5436 252.189 17.1096 250.741 19.0414 250.741H148.849C150.781 250.741 152.347 252.189 152.347 253.975C152.347 255.761 150.781 257.209 148.849 257.209H19.0414C17.1096 257.209 15.5436 255.761 15.5436 253.975Z" fill="url(#paint1_linear_1_464)"/>
<path d="M15.5436 270.142C15.5436 268.356 17.1096 266.908 19.0414 266.908H61.0152C62.947 266.908 64.513 268.356 64.513 270.142C64.513 271.928 62.947 273.376 61.0152 273.376H19.0414C17.1096 273.376 15.5436 271.928 15.5436 270.142Z" fill="url(#paint2_linear_1_464)"/>
<path d="M70.7346 270.142C70.7346 268.356 72.3006 266.908 74.2324 266.908H90.5556C92.4874 266.908 94.0534 268.356 94.0534 270.142C94.0534 271.928 92.4874 273.376 90.5556 273.376H74.2324C72.3006 273.376 70.7346 271.928 70.7346 270.142Z" fill="url(#paint3_linear_1_464)"/>
<path d="M15.5436 334.817C15.5436 333.031 17.1096 331.583 19.0414 331.583H61.0152C62.947 331.583 64.513 333.031 64.513 334.817C64.513 336.603 62.947 338.051 61.0152 338.051H19.0414C17.1096 338.051 15.5436 336.603 15.5436 334.817Z" fill="url(#paint4_linear_1_464)"/>
<path d="M70.7346 334.817C70.7346 333.031 72.3006 331.583 74.2324 331.583H90.5556C92.4874 331.583 94.0534 333.031 94.0534 334.817C94.0534 336.603 92.4874 338.051 90.5556 338.051H74.2324C72.3006 338.051 70.7346 336.603 70.7346 334.817Z" fill="url(#paint5_linear_1_464)"/>
<path d="M43.5276 302.481C43.5276 300.695 45.0937 299.247 47.0255 299.247H58.6849C60.6166 299.247 62.1827 300.695 62.1827 302.481C62.1827 304.266 60.6166 305.714 58.6849 305.714H47.0255C45.0937 305.714 43.5276 304.266 43.5276 302.481Z" fill="url(#paint6_linear_1_464)"/>
<path d="M69.1787 302.481C69.1787 300.695 70.7447 299.247 72.6765 299.247H122.423C124.355 299.247 125.921 300.695 125.921 302.481C125.921 304.266 124.355 305.714 122.423 305.714H72.6765C70.7447 305.714 69.1787 304.266 69.1787 302.481Z" fill="url(#paint7_linear_1_464)"/>
<path d="M15.5436 302.481C15.5436 300.695 17.1096 299.247 19.0414 299.247H35.3645C37.2963 299.247 38.8624 300.695 38.8624 302.481C38.8624 304.266 37.2963 305.714 35.3645 305.714H19.0414C17.1096 305.714 15.5436 304.266 15.5436 302.481Z" fill="url(#paint8_linear_1_464)"/>
<path d="M15.5436 286.311C15.5436 284.525 17.1096 283.078 19.0414 283.078H75.7838C77.7156 283.078 79.2816 284.525 79.2816 286.311C79.2816 288.097 77.7156 289.545 75.7838 289.545H19.0414C17.1096 289.545 15.5436 288.097 15.5436 286.311Z" fill="url(#paint9_linear_1_464)"/>
<path d="M84.7223 286.311C84.7223 284.525 86.2883 283.078 88.2201 283.078H114.648C116.58 283.078 118.146 284.525 118.146 286.311C118.146 288.097 116.58 289.545 114.648 289.545H88.2201C86.2883 289.545 84.7223 288.097 84.7223 286.311Z" fill="url(#paint10_linear_1_464)"/>
<path d="M15.5436 318.65C15.5436 316.864 17.1096 315.416 19.0414 315.416H75.7838C77.7156 315.416 79.2816 316.864 79.2816 318.65C79.2816 320.435 77.7156 321.883 75.7838 321.883H19.0414C17.1096 321.883 15.5436 320.435 15.5436 318.65Z" fill="url(#paint11_linear_1_464)"/>
<path d="M80.0227 15.3602C80.0227 6.87699 87.4613 0 96.6373 0H530.367C539.543 0 546.981 6.877 546.981 15.3602V310.438C546.981 318.921 539.543 325.798 530.367 325.798H96.6373C87.4613 325.798 80.0227 318.921 80.0227 310.438V15.3602Z" fill="url(#paint12_linear_1_464)"/>
<path fill-rule="evenodd" clip-rule="evenodd" d="M530.125 1.61686H96.3959C88.1858 1.61686 81.5302 7.76997 81.5302 15.3602V310.438C81.5302 318.028 88.1858 324.181 96.3959 324.181H530.125C538.335 324.181 544.991 318.028 544.991 310.438V15.3602C544.991 7.76997 538.335 1.61686 530.125 1.61686ZM96.3959 0C87.2199 0 79.7812 6.877 79.7812 15.3602V310.438C79.7812 318.921 87.2199 325.798 96.3959 325.798H530.125C539.301 325.798 546.74 318.921 546.74 310.438V15.3602C546.74 6.877 539.301 0 530.125 0H96.3959Z" fill="url(#paint13_linear_1_464)"/>
<path d="M90.2729 30.3165C90.2729 21.1636 98.2988 13.7437 108.199 13.7437H511.323C521.223 13.7437 529.249 21.1636 529.249 30.3165C529.249 39.4695 521.223 46.8894 511.323 46.8894H108.199C98.2988 46.8894 90.2729 39.4695 90.2729 30.3165Z" fill="url(#paint14_linear_1_464)"/>
<path fill-rule="evenodd" clip-rule="evenodd" d="M516.912 65.6777H348.695C343.165 65.6777 338.682 69.3076 338.682 73.7853V174.32C338.682 178.797 343.165 182.427 348.695 182.427H516.912C522.442 182.427 526.925 178.797 526.925 174.32V73.7853C526.925 69.3076 522.442 65.6777 516.912 65.6777ZM348.695 64.0562C342.059 64.0562 336.679 68.412 336.679 73.7853V174.32C336.679 179.693 342.059 184.049 348.695 184.049H516.912C523.548 184.049 528.928 179.693 528.928 174.32V73.7853C528.928 68.412 523.548 64.0562 516.912 64.0562H348.695Z" fill="url(#paint15_linear_1_464)"/>
<path d="M352.224 83.4591C352.224 81.6731 353.79 80.2253 355.722 80.2253H485.53C487.462 80.2253 489.028 81.6731 489.028 83.4591C489.028 85.245 487.462 86.6928 485.53 86.6928H355.722C353.79 86.6928 352.224 85.245 352.224 83.4591Z" fill="url(#paint16_linear_1_464)"/>
<path d="M352.224 99.6263C352.224 97.8404 353.79 96.3926 355.722 96.3926H397.696C399.628 96.3926 401.194 97.8404 401.194 99.6263C401.194 101.412 399.628 102.86 397.696 102.86H355.722C353.79 102.86 352.224 101.412 352.224 99.6263Z" fill="url(#paint17_linear_1_464)"/>
<path d="M407.407 99.6263C407.407 97.8404 408.973 96.3926 410.904 96.3926H427.228C429.159 96.3926 430.725 97.8404 430.725 99.6263C430.725 101.412 429.159 102.86 427.228 102.86H410.904C408.973 102.86 407.407 101.412 407.407 99.6263Z" fill="url(#paint18_linear_1_464)"/>
<path d="M352.224 164.301C352.224 162.515 353.79 161.067 355.722 161.067H397.696C399.628 161.067 401.194 162.515 401.194 164.301C401.194 166.087 399.628 167.535 397.696 167.535H355.722C353.79 167.535 352.224 166.087 352.224 164.301Z" fill="url(#paint19_linear_1_464)"/>
<path d="M407.407 164.301C407.407 162.515 408.973 161.067 410.904 161.067H427.228C429.159 161.067 430.725 162.515 430.725 164.301C430.725 166.087 429.159 167.535 427.228 167.535H410.904C408.973 167.535 407.407 166.087 407.407 164.301Z" fill="url(#paint20_linear_1_464)"/>
<path d="M380.207 131.965C380.207 130.179 381.773 128.731 383.705 128.731H395.364C397.296 128.731 398.862 130.179 398.862 131.965C398.862 133.751 397.296 135.198 395.364 135.198H383.705C381.773 135.198 380.207 133.751 380.207 131.965Z" fill="url(#paint21_linear_1_464)"/>
<path d="M405.86 131.965C405.86 130.179 407.426 128.731 409.357 128.731H459.104C461.036 128.731 462.602 130.179 462.602 131.965C462.602 133.751 461.036 135.198 459.104 135.198H409.357C407.426 135.198 405.86 133.751 405.86 131.965Z" fill="url(#paint22_linear_1_464)"/>
<path d="M352.224 131.965C352.224 130.179 353.79 128.731 355.722 128.731H372.045C373.977 128.731 375.543 130.179 375.543 131.965C375.543 133.751 373.977 135.198 372.045 135.198H355.722C353.79 135.198 352.224 133.751 352.224 131.965Z" fill="url(#paint23_linear_1_464)"/>
<path d="M352.224 115.795C352.224 114.01 353.79 112.562 355.722 112.562H412.465C414.396 112.562 415.962 114.01 415.962 115.795C415.962 117.581 414.396 119.029 412.465 119.029H355.722C353.79 119.029 352.224 117.581 352.224 115.795Z" fill="url(#paint24_linear_1_464)"/>
<path d="M421.403 115.795C421.403 114.01 422.969 112.562 424.901 112.562H451.329C453.261 112.562 454.827 114.01 454.827 115.795C454.827 117.581 453.261 119.029 451.329 119.029H424.901C422.969 119.029 421.403 117.581 421.403 115.795Z" fill="url(#paint25_linear_1_464)"/>
<path d="M352.224 148.134C352.224 146.348 353.79 144.9 355.722 144.9H412.465C414.396 144.9 415.962 146.348 415.962 148.134C415.962 149.92 414.396 151.367 412.465 151.367H355.722C353.79 151.367 352.224 149.92 352.224 148.134Z" fill="url(#paint26_linear_1_464)"/>
<path d="M462.32 30.4985C462.32 33.5601 459.634 36.0419 456.322 36.0419C453.01 36.0419 450.324 33.5601 450.324 30.4985C450.324 27.437 453.01 24.9551 456.322 24.9551C459.634 24.9551 462.32 27.437 462.32 30.4985Z" fill="#FED280"/>
<path d="M483.316 30.4985C483.316 33.5601 480.631 36.0419 477.318 36.0419C474.006 36.0419 471.32 33.5601 471.32 30.4985C471.32 27.437 474.006 24.9551 477.318 24.9551C480.631 24.9551 483.316 27.437 483.316 30.4985Z" fill="#8CFEE3" fill-opacity="0.9"/>
<path d="M504.306 30.4985C504.306 33.5601 501.621 36.0419 498.308 36.0419C494.996 36.0419 492.311 33.5601 492.311 30.4985C492.311 27.437 494.996 24.9551 498.308 24.9551C501.621 24.9551 504.306 27.437 504.306 30.4985Z" fill="#FF8DA9" fill-opacity="0.9"/>
<rect x="185.414" y="74" width="121.985" height="48.7188" rx="6" fill="url(#paint27_linear_1_464)"/>
<rect x="185" y="127.922" width="56.6011" height="48.7188" rx="6" fill="url(#paint28_linear_1_464)"/>
<rect x="117" y="148.922" width="61" height="28" rx="6" fill="url(#paint29_linear_1_464)"/>
<rect x="246.484" y="127.922" width="56.6011" height="48.7188" rx="6" fill="url(#paint30_linear_1_464)"/>
<path d="M101 77C101 69.8203 106.82 64 114 64H309.525C316.704 64 322.525 69.8203 322.525 77V170.993C322.525 178.172 316.704 183.993 309.525 183.993H114C106.82 183.993 101 178.172 101 170.993V77Z" fill="url(#paint31_linear_1_464)"/>
<rect x="101" y="195" width="428.411" height="106.46" rx="13" fill="url(#paint32_linear_1_464)"/>
<path d="M466 282.763C466 270.191 476.194 260 488.769 260H554.231C566.806 260 577 270.191 577 282.763V348.207C577 360.778 566.806 370.97 554.231 370.97H488.769C476.194 370.97 466 360.778 466 348.207V282.763Z" fill="#FCD980"/>
<path d="M494.466 312.614C499.07 311.756 501.373 309.387 501.373 305.506C501.373 303.791 501.147 300.857 500.696 296.705C500.244 292.282 500.019 289.078 500.019 287.092C500.019 283.843 500.921 281.36 502.727 279.645C504.578 277.93 507.038 277.073 510.108 277.073H514.036V282.421H511.259C509.499 282.421 508.19 282.827 507.332 283.64C506.474 284.407 506.045 285.693 506.045 287.498C506.045 288.807 506.135 290.432 506.316 292.373C506.497 294.268 506.609 295.554 506.655 296.231C507.106 300.564 507.332 303.723 507.332 305.709C507.332 308.101 506.722 310.109 505.503 311.734C504.33 313.313 502.501 314.374 500.019 314.916V315.051C502.501 315.593 504.33 316.676 505.503 318.3C506.722 319.925 507.332 321.934 507.332 324.326C507.332 326.311 507.106 329.47 506.655 333.803C506.609 334.48 506.497 335.789 506.316 337.73C506.135 339.625 506.045 341.227 506.045 342.536C506.045 344.341 506.474 345.627 507.332 346.395C508.19 347.207 509.499 347.613 511.259 347.613H514.036V352.961H510.108C507.038 352.961 504.578 352.104 502.727 350.389C500.921 348.674 500.019 346.192 500.019 342.942C500.019 340.956 500.244 337.752 500.696 333.329C501.147 329.177 501.373 326.244 501.373 324.529C501.373 320.647 499.07 318.278 494.466 317.42V312.614Z" fill="#1C1E53"/>
<path d="M549.365 317.42C544.76 318.278 542.458 320.647 542.458 324.529C542.458 326.244 542.684 329.177 543.135 333.329C543.587 337.752 543.812 340.956 543.812 342.942C543.812 346.192 542.887 348.674 541.036 350.389C539.23 352.104 536.792 352.961 533.723 352.961H529.795V347.613H532.572C534.332 347.613 535.641 347.207 536.499 346.395C537.357 345.628 537.786 344.341 537.786 342.536C537.786 341.227 537.695 339.625 537.515 337.73C537.334 335.789 537.221 334.48 537.176 333.803C536.725 329.47 536.499 326.311 536.499 324.326C536.499 321.934 537.086 319.925 538.26 318.3C539.479 316.676 541.329 315.593 543.812 315.051V314.916C541.329 314.374 539.479 313.313 538.26 311.734C537.086 310.109 536.499 308.101 536.499 305.709C536.499 303.723 536.725 300.564 537.176 296.231C537.221 295.554 537.334 294.268 537.515 292.373C537.695 290.432 537.786 288.807 537.786 287.498C537.786 285.693 537.357 284.407 536.499 283.64C535.641 282.827 534.332 282.421 532.572 282.421H529.795V277.073H533.723C536.792 277.073 539.23 277.93 541.036 279.645C542.887 281.36 543.812 283.843 543.812 287.092C543.812 289.078 543.587 292.282 543.135 296.705C542.684 300.857 542.458 303.791 542.458 305.506C542.458 309.387 544.76 311.756 549.365 312.614V317.42Z" fill="#1C1E53"/>
<path d="M117 78.3764C117 75.4071 119.407 73 122.376 73H172.556C175.525 73 177.933 75.4071 177.933 78.3764V135.725C177.933 138.694 175.525 141.101 172.556 141.101H122.376C119.407 141.101 117 138.694 117 135.725V78.3764Z" fill="white" fill-opacity="0.17"/>
<defs>
<linearGradient id="paint0_linear_1_464" x1="96.1242" y1="234.572" x2="164.692" y2="542.738" gradientUnits="userSpaceOnUse">
<stop stop-color="white" stop-opacity="0.17"/>
<stop offset="1" stop-opacity="0"/>
</linearGradient>
<linearGradient id="paint1_linear_1_464" x1="83.9454" y1="250.741" x2="91.3397" y2="290.124" gradientUnits="userSpaceOnUse">
<stop stop-color="white" stop-opacity="0.56"/>
<stop offset="1" stop-color="#C4C4C4" stop-opacity="0"/>
</linearGradient>
<linearGradient id="paint2_linear_1_464" x1="40.0283" y1="266.908" x2="56.7996" y2="298.883" gradientUnits="userSpaceOnUse">
<stop stop-color="#F9C746" stop-opacity="0.52"/>
<stop offset="1" stop-color="#C4C4C4" stop-opacity="0"/>
</linearGradient>
<linearGradient id="paint3_linear_1_464" x1="82.394" y1="266.908" x2="102.685" y2="285.329" gradientUnits="userSpaceOnUse">
<stop stop-color="#84EBE5" stop-opacity="0.62"/>
<stop offset="1" stop-color="#C4C4C4" stop-opacity="0"/>
</linearGradient>
<linearGradient id="paint4_linear_1_464" x1="40.0283" y1="331.583" x2="56.7996" y2="363.557" gradientUnits="userSpaceOnUse">
<stop stop-color="white" stop-opacity="0.56"/>
<stop offset="1" stop-color="#C4C4C4" stop-opacity="0"/>
</linearGradient>
<linearGradient id="paint5_linear_1_464" x1="82.394" y1="331.583" x2="102.685" y2="350.004" gradientUnits="userSpaceOnUse">
<stop stop-color="#F47D9E"/>
<stop offset="1" stop-color="#C4C4C4" stop-opacity="0"/>
</linearGradient>
<linearGradient id="paint6_linear_1_464" x1="52.8552" y1="299.247" x2="72.2408" y2="313.326" gradientUnits="userSpaceOnUse">
<stop stop-color="#F2C87D"/>
<stop offset="1" stop-color="#C4C4C4" stop-opacity="0"/>
</linearGradient>
<linearGradient id="paint7_linear_1_464" x1="97.5499" y1="299.247" x2="112.867" y2="333.084" gradientUnits="userSpaceOnUse">
<stop stop-color="white" stop-opacity="0.62"/>
<stop offset="1" stop-color="#C4C4C4" stop-opacity="0"/>
</linearGradient>
<linearGradient id="paint8_linear_1_464" x1="21.7619" y1="297.63" x2="57.4361" y2="303.079" gradientUnits="userSpaceOnUse">
<stop stop-color="#F37D9D"/>
<stop offset="1" stop-color="#C4C4C4" stop-opacity="0"/>
</linearGradient>
<linearGradient id="paint9_linear_1_464" x1="47.4126" y1="283.078" x2="61.5475" y2="318.153" gradientUnits="userSpaceOnUse">
<stop stop-color="white" stop-opacity="0.58"/>
<stop offset="1" stop-color="#C4C4C4" stop-opacity="0"/>
</linearGradient>
<linearGradient id="paint10_linear_1_464" x1="101.434" y1="283.078" x2="121.133" y2="308.711" gradientUnits="userSpaceOnUse">
<stop stop-color="white" stop-opacity="0.45"/>
<stop offset="1" stop-color="#C4C4C4" stop-opacity="0"/>
</linearGradient>
<linearGradient id="paint11_linear_1_464" x1="47.4126" y1="315.416" x2="61.5475" y2="350.491" gradientUnits="userSpaceOnUse">
<stop stop-color="#70D1E7"/>
<stop offset="1" stop-color="#C4C4C4" stop-opacity="0"/>
</linearGradient>
<linearGradient id="paint12_linear_1_464" x1="313.502" y1="0" x2="417.183" y2="477.127" gradientUnits="userSpaceOnUse">
<stop stop-color="white" stop-opacity="0.16"/>
<stop offset="1" stop-color="#C4C4C4" stop-opacity="0"/>
</linearGradient>
<linearGradient id="paint13_linear_1_464" x1="313.261" y1="1.20914e-05" x2="625.788" y2="243.877" gradientUnits="userSpaceOnUse">
<stop stop-color="white" stop-opacity="0.17"/>
<stop offset="1" stop-opacity="0"/>
</linearGradient>
<linearGradient id="paint14_linear_1_464" x1="309.761" y1="13.7436" x2="367.251" y2="205.456" gradientUnits="userSpaceOnUse">
<stop stop-color="white" stop-opacity="0.15"/>
<stop offset="1" stop-color="#C4C4C4" stop-opacity="0"/>
</linearGradient>
<linearGradient id="paint15_linear_1_464" x1="432.803" y1="64.0562" x2="501.371" y2="372.222" gradientUnits="userSpaceOnUse">
<stop stop-color="white" stop-opacity="0.17"/>
<stop offset="1" stop-opacity="0"/>
</linearGradient>
<linearGradient id="paint16_linear_1_464" x1="420.626" y1="80.2253" x2="428.021" y2="119.608" gradientUnits="userSpaceOnUse">
<stop stop-color="white" stop-opacity="0.56"/>
<stop offset="1" stop-color="#C4C4C4" stop-opacity="0"/>
</linearGradient>
<linearGradient id="paint17_linear_1_464" x1="376.709" y1="96.3926" x2="393.48" y2="128.367" gradientUnits="userSpaceOnUse">
<stop stop-color="#F9C746" stop-opacity="0.52"/>
<stop offset="1" stop-color="#C4C4C4" stop-opacity="0"/>
</linearGradient>
<linearGradient id="paint18_linear_1_464" x1="419.066" y1="96.3926" x2="439.357" y2="114.813" gradientUnits="userSpaceOnUse">
<stop stop-color="#84EBE5" stop-opacity="0.62"/>
<stop offset="1" stop-color="#C4C4C4" stop-opacity="0"/>
</linearGradient>
<linearGradient id="paint19_linear_1_464" x1="376.709" y1="161.067" x2="393.48" y2="193.042" gradientUnits="userSpaceOnUse">
<stop stop-color="white" stop-opacity="0.56"/>
<stop offset="1" stop-color="#C4C4C4" stop-opacity="0"/>
</linearGradient>
<linearGradient id="paint20_linear_1_464" x1="419.066" y1="161.067" x2="439.357" y2="179.488" gradientUnits="userSpaceOnUse">
<stop stop-color="#F47D9E"/>
<stop offset="1" stop-color="#C4C4C4" stop-opacity="0"/>
</linearGradient>
<linearGradient id="paint21_linear_1_464" x1="389.534" y1="128.731" x2="408.92" y2="142.81" gradientUnits="userSpaceOnUse">
<stop stop-color="#F2C87D"/>
<stop offset="1" stop-color="#C4C4C4" stop-opacity="0"/>
</linearGradient>
<linearGradient id="paint22_linear_1_464" x1="434.231" y1="128.731" x2="449.548" y2="162.568" gradientUnits="userSpaceOnUse">
<stop stop-color="white" stop-opacity="0.62"/>
<stop offset="1" stop-color="#C4C4C4" stop-opacity="0"/>
</linearGradient>
<linearGradient id="paint23_linear_1_464" x1="358.443" y1="127.114" x2="394.117" y2="132.563" gradientUnits="userSpaceOnUse">
<stop stop-color="#F37D9D"/>
<stop offset="1" stop-color="#C4C4C4" stop-opacity="0"/>
</linearGradient>
<linearGradient id="paint24_linear_1_464" x1="384.093" y1="112.562" x2="398.228" y2="147.637" gradientUnits="userSpaceOnUse">
<stop stop-color="white" stop-opacity="0.58"/>
<stop offset="1" stop-color="#C4C4C4" stop-opacity="0"/>
</linearGradient>
<linearGradient id="paint25_linear_1_464" x1="438.115" y1="112.562" x2="457.814" y2="138.195" gradientUnits="userSpaceOnUse">
<stop stop-color="white" stop-opacity="0.45"/>
<stop offset="1" stop-color="#C4C4C4" stop-opacity="0"/>
</linearGradient>
<linearGradient id="paint26_linear_1_464" x1="384.093" y1="144.9" x2="398.228" y2="179.975" gradientUnits="userSpaceOnUse">
<stop stop-color="#70D1E7"/>
<stop offset="1" stop-color="#C4C4C4" stop-opacity="0"/>
</linearGradient>
<linearGradient id="paint27_linear_1_464" x1="218.235" y1="54.1169" x2="235.603" y2="148.238" gradientUnits="userSpaceOnUse">
<stop stop-color="white" stop-opacity="0.31"/>
<stop offset="1" stop-color="white" stop-opacity="0"/>
</linearGradient>
<linearGradient id="paint28_linear_1_464" x1="200.229" y1="108.039" x2="233.648" y2="192.074" gradientUnits="userSpaceOnUse">
<stop stop-color="white" stop-opacity="0.31"/>
<stop offset="1" stop-color="white" stop-opacity="0"/>
</linearGradient>
<linearGradient id="paint29_linear_1_464" x1="133.413" y1="137.495" x2="144.764" y2="191.023" gradientUnits="userSpaceOnUse">
<stop stop-color="white" stop-opacity="0.31"/>
<stop offset="1" stop-color="white" stop-opacity="0"/>
</linearGradient>
<linearGradient id="paint30_linear_1_464" x1="261.713" y1="108.039" x2="295.132" y2="192.074" gradientUnits="userSpaceOnUse">
<stop stop-color="white" stop-opacity="0.31"/>
<stop offset="1" stop-color="white" stop-opacity="0"/>
</linearGradient>
<linearGradient id="paint31_linear_1_464" x1="160.603" y1="15.0286" x2="217.057" y2="240.61" gradientUnits="userSpaceOnUse">
<stop stop-color="white" stop-opacity="0.31"/>
<stop offset="1" stop-color="white" stop-opacity="0"/>
</linearGradient>
<linearGradient id="paint32_linear_1_464" x1="160.529" y1="-55.8117" x2="59.2563" y2="300.805" gradientUnits="userSpaceOnUse">
<stop stop-color="white" stop-opacity="0.31"/>
<stop offset="1" stop-color="white" stop-opacity="0"/>
</linearGradient>
</defs>
</svg>
